<svg width="25" height="22" viewBox="0 0 25 22" fill="none" xmlns="http://www.w3.org/2000/svg">
<path d="M12.2812 6.50752L12.3316 7.33798L11.4922 7.23629C8.43686 6.84649 5.76765 5.52454 3.50134 3.30434L2.39336 2.20272L2.10798 3.01623C1.50363 4.82967 1.88974 6.7448 3.1488 8.03285C3.8203 8.74467 3.66921 8.84636 2.51088 8.42265C2.10798 8.28707 1.75544 8.18538 1.72186 8.23623C1.60435 8.35486 2.00725 9.89713 2.32621 10.5073C2.76269 11.3547 3.65243 12.1851 4.6261 12.6766L5.44869 13.0664L4.47501 13.0834C3.53491 13.0834 3.50134 13.1003 3.60206 13.4562C3.93781 14.5578 5.26403 15.7273 6.74133 16.2357L7.78215 16.5916L6.87563 17.1339C5.53263 17.9136 3.9546 18.3542 2.37658 18.3881C1.62114 18.4051 1 18.4728 1 18.5237C1 18.6932 3.04808 19.6423 4.23999 20.0151C7.81573 21.1167 12.063 20.6422 15.2526 18.761C17.5189 17.4221 19.7852 14.7612 20.8428 12.1851C21.4136 10.8123 21.9844 8.30402 21.9844 7.10071C21.9844 6.3211 22.0347 6.21941 22.9748 5.28727C23.5288 4.74493 24.0492 4.15175 24.15 3.98227C24.3178 3.66025 24.3011 3.66025 23.4449 3.94837C22.018 4.45681 21.8165 4.38902 22.5216 3.62636C23.042 3.08402 23.6631 2.10103 23.6631 1.81292C23.6631 1.76207 23.4113 1.84681 23.1259 1.99935C22.8238 2.16883 22.1523 2.42305 21.6486 2.57558L20.7421 2.8637L19.9195 2.30441C19.4663 1.99935 18.8283 1.66038 18.4926 1.5587C17.6364 1.32142 16.327 1.35532 15.5548 1.62649C13.4563 2.38915 12.1301 4.35512 12.2812 6.50752Z" stroke="white"/>
</svg>
