<svg width="28" height="21" viewBox="0 0 28 21" fill="none" xmlns="http://www.w3.org/2000/svg">
<path d="M26.265 4.07317L25.7811 4.19912L25.7812 4.19944L26.265 4.07317ZM24.0016 1.74928L23.8689 2.23136L23.8693 2.23146L24.0016 1.74928ZM3.99825 1.74928L4.13056 2.23146L4.1309 2.23136L3.99825 1.74928ZM1.73483 4.07317L2.21864 4.1994L2.21871 4.19912L1.73483 4.07317ZM1.73483 16.7267L2.21871 16.6008L2.21864 16.6005L1.73483 16.7267ZM3.99825 19.0508L4.13087 18.5687L4.13062 18.5686L3.99825 19.0508ZM14 19.6V20.1V19.6ZM24.0016 19.0508L23.8692 18.5686L23.869 18.5687L24.0016 19.0508ZM26.265 16.7267L25.7812 16.6005L25.7811 16.6008L26.265 16.7267ZM26.8 10.4H27.3H26.8ZM26.7489 3.94722C26.4107 2.64808 25.4128 1.61803 24.1339 1.2671L23.8693 2.23146C24.7935 2.48506 25.5305 3.23624 25.7811 4.19912L26.7489 3.94722ZM24.1343 1.2672C23.582 1.11524 22.6614 1.01005 21.634 0.933096C20.5923 0.855062 19.3963 0.803287 18.2675 0.76885C17.1378 0.734388 16.0713 0.717171 15.2875 0.708565C14.8955 0.70426 14.574 0.702107 14.3503 0.70103C14.2384 0.700491 14.151 0.700222 14.0915 0.700087C14.0618 0.700019 14.039 0.699985 14.0236 0.699968C14.0159 0.69996 14.01 0.699955 14.0061 0.699953C14.0041 0.699952 14.0026 0.699952 14.0016 0.699951C14.0011 0.699951 14.0007 0.699951 14.0004 0.699951C14.0003 0.699951 14.0002 0.699951 14.0001 0.699951C14 0.699951 14 0.699951 14 1.19995C14 1.69995 14 1.69995 14.0001 1.69995C14.0001 1.69995 14.0002 1.69995 14.0003 1.69995C14.0005 1.69995 14.0009 1.69995 14.0013 1.69995C14.0022 1.69995 14.0037 1.69995 14.0055 1.69995C14.0093 1.69996 14.015 1.69996 14.0225 1.69997C14.0375 1.69998 14.0599 1.70002 14.0893 1.70008C14.148 1.70022 14.2345 1.70048 14.3455 1.70102C14.5674 1.70209 14.8868 1.70423 15.2765 1.7085C16.0561 1.71706 17.1158 1.73418 18.237 1.76838C19.359 1.80261 20.5386 1.85384 21.5593 1.9303C22.5945 2.00784 23.4231 2.10866 23.8689 2.23136L24.1343 1.2672ZM14 1.19995C14 0.699951 13.9999 0.699951 13.9999 0.699951C13.9998 0.699951 13.9997 0.699951 13.9996 0.699951C13.9993 0.699951 13.9989 0.699951 13.9984 0.699951C13.9974 0.699952 13.9959 0.699952 13.9939 0.699953C13.99 0.699955 13.9841 0.69996 13.9764 0.699968C13.961 0.699985 13.9382 0.700019 13.9085 0.700087C13.849 0.700222 13.7616 0.700491 13.6497 0.70103C13.426 0.702107 13.1045 0.70426 12.7125 0.708565C11.9287 0.717171 10.8622 0.734388 9.73251 0.76885C8.60367 0.803287 7.40761 0.855062 6.36589 0.933096C5.33855 1.01005 4.41786 1.11524 3.8656 1.2672L4.1309 2.23136C4.57683 2.10866 5.40544 2.00784 6.44059 1.9303C7.46136 1.85384 8.64096 1.80261 9.76301 1.76838C10.8842 1.73418 11.9439 1.71706 12.7235 1.7085C13.1131 1.70423 13.4326 1.70209 13.6545 1.70102C13.7655 1.70048 13.852 1.70022 13.9107 1.70008C13.9401 1.70002 13.9625 1.69998 13.9775 1.69997C13.985 1.69996 13.9907 1.69996 13.9945 1.69995C13.9963 1.69995 13.9977 1.69995 13.9987 1.69995C13.9991 1.69995 13.9995 1.69995 13.9997 1.69995C13.9998 1.69995 13.9999 1.69995 13.9999 1.69995C14 1.69995 14 1.69995 14 1.19995ZM3.86594 1.2671C2.58708 1.61803 1.58912 2.64808 1.25096 3.94722L2.21871 4.19912C2.46935 3.23624 3.20636 2.48506 4.13056 2.23146L3.86594 1.2671ZM1.25103 3.94694C0.969126 5.02737 0.834254 6.65632 0.767486 7.98006C0.733733 8.64925 0.716875 9.25329 0.708447 9.69C0.70423 9.90846 0.702118 10.0853 0.70106 10.2079C0.700531 10.2691 0.700265 10.3168 0.700132 10.3494C0.700065 10.3656 0.700031 10.3781 0.700014 10.3866C0.700006 10.3909 0.700001 10.3941 0.699999 10.3963C0.699998 10.3975 0.699998 10.3983 0.699997 10.3989C0.699997 10.3992 0.699997 10.3995 0.699997 10.3996C0.699997 10.3997 0.699997 10.3998 0.699997 10.3998C0.699997 10.3999 0.699997 10.4 1.2 10.4C1.7 10.4 1.7 10.4 1.7 10.4C1.7 10.3999 1.7 10.3999 1.7 10.3999C1.7 10.3998 1.7 10.3996 1.7 10.3994C1.7 10.399 1.7 10.3983 1.7 10.3973C1.7 10.3954 1.7 10.3925 1.70001 10.3886C1.70003 10.3808 1.70006 10.369 1.70012 10.3535C1.70025 10.3224 1.70051 10.2762 1.70102 10.2165C1.70205 10.0971 1.70412 9.92382 1.70826 9.7093C1.71655 9.28002 1.73312 8.68671 1.76622 8.03043C1.83316 6.70323 1.9657 5.16879 2.21864 4.1994L1.25103 3.94694ZM1.2 10.4C0.699997 10.4 0.699997 10.4 0.699997 10.4001C0.699997 10.4001 0.699997 10.4002 0.699997 10.4003C0.699997 10.4004 0.699997 10.4007 0.699997 10.401C0.699998 10.4016 0.699998 10.4024 0.699999 10.4036C0.700001 10.4058 0.700006 10.409 0.700014 10.4133C0.700031 10.4218 0.700065 10.4343 0.700132 10.4505C0.700265 10.4831 0.700531 10.5308 0.70106 10.592C0.702118 10.7146 0.70423 10.8914 0.708447 11.1099C0.716875 11.5466 0.733733 12.1506 0.767486 12.8198C0.834254 14.1435 0.969126 15.7725 1.25103 16.853L2.21864 16.6005C1.9657 15.631 1.83316 14.0966 1.76622 12.7694C1.73312 12.1131 1.71655 11.5198 1.70826 11.0906C1.70412 10.8761 1.70205 10.7028 1.70102 10.5834C1.70051 10.5237 1.70025 10.4775 1.70012 10.4464C1.70006 10.4309 1.70003 10.4191 1.70001 10.4113C1.7 10.4074 1.7 10.4045 1.7 10.4026C1.7 10.4016 1.7 10.4009 1.7 10.4005C1.7 10.4003 1.7 10.4001 1.7 10.4C1.7 10.4 1.7 10.4 1.7 10.3999C1.7 10.3999 1.7 10.4 1.2 10.4ZM1.25096 16.8527C1.58912 18.1518 2.58708 19.1818 3.86588 19.5329L4.13062 18.5686C3.20637 18.3149 2.46934 17.5636 2.21871 16.6008L1.25096 16.8527ZM3.86563 19.5329C4.41788 19.6848 5.33856 19.7899 6.3659 19.8669C7.40761 19.9449 8.60367 19.9966 9.73252 20.0311C10.8622 20.0655 11.9287 20.0827 12.7125 20.0913C13.1045 20.0956 13.426 20.0978 13.6497 20.0989C13.7616 20.0994 13.849 20.0997 13.9085 20.0998C13.9382 20.0999 13.961 20.0999 13.9764 20.0999C13.9841 20.0999 13.99 20.0999 13.9939 20.0999C13.9959 20.0999 13.9974 20.1 13.9984 20.1C13.9989 20.1 13.9993 20.1 13.9996 20.1C13.9997 20.1 13.9998 20.1 13.9999 20.1C13.9999 20.1 14 20.1 14 19.6C14 19.1 14 19.1 13.9999 19.1C13.9999 19.1 13.9998 19.1 13.9997 19.1C13.9995 19.1 13.9991 19.1 13.9987 19.1C13.9977 19.1 13.9963 19.0999 13.9945 19.0999C13.9907 19.0999 13.985 19.0999 13.9775 19.0999C13.9625 19.0999 13.9401 19.0999 13.9107 19.0998C13.852 19.0997 13.7655 19.0994 13.6545 19.0989C13.4326 19.0978 13.1131 19.0957 12.7235 19.0914C11.9439 19.0828 10.8842 19.0657 9.763 19.0315C8.64096 18.9973 7.46135 18.9461 6.44058 18.8697C5.40543 18.7921 4.5768 18.6914 4.13087 18.5687L3.86563 19.5329ZM14 19.6C14 20.1 14 20.1 14.0001 20.1C14.0002 20.1 14.0003 20.1 14.0004 20.1C14.0007 20.1 14.0011 20.1 14.0016 20.1C14.0026 20.1 14.0041 20.0999 14.0061 20.0999C14.01 20.0999 14.0159 20.0999 14.0236 20.0999C14.039 20.0999 14.0618 20.0999 14.0915 20.0998C14.151 20.0997 14.2384 20.0994 14.3503 20.0989C14.574 20.0978 14.8955 20.0956 15.2875 20.0913C16.0713 20.0827 17.1378 20.0655 18.2675 20.0311C19.3963 19.9966 20.5923 19.9449 21.634 19.8669C22.6614 19.7899 23.582 19.6848 24.1342 19.5329L23.869 18.5687C23.4231 18.6914 22.5945 18.7921 21.5594 18.8697C20.5386 18.9461 19.359 18.9973 18.237 19.0315C17.1158 19.0657 16.0561 19.0828 15.2765 19.0914C14.8868 19.0957 14.5674 19.0978 14.3455 19.0989C14.2345 19.0994 14.148 19.0997 14.0893 19.0998C14.0599 19.0999 14.0375 19.0999 14.0225 19.0999C14.015 19.0999 14.0093 19.0999 14.0055 19.0999C14.0037 19.0999 14.0022 19.1 14.0013 19.1C14.0009 19.1 14.0005 19.1 14.0003 19.1C14.0002 19.1 14.0001 19.1 14.0001 19.1C14 19.1 14 19.1 14 19.6ZM24.134 19.5329C25.4128 19.1818 26.4107 18.1518 26.7489 16.8527L25.7811 16.6008C25.5305 17.5636 24.7935 18.3149 23.8692 18.5686L24.134 19.5329ZM26.7488 16.853C27.0308 15.7725 27.1657 14.1435 27.2325 12.8198C27.2663 12.1506 27.2831 11.5466 27.2915 11.1099C27.2958 10.8914 27.2979 10.7146 27.2989 10.592C27.2995 10.5308 27.2997 10.4831 27.2999 10.4505C27.2999 10.4343 27.3 10.4218 27.3 10.4133C27.3 10.409 27.3 10.4058 27.3 10.4036C27.3 10.4024 27.3 10.4016 27.3 10.401C27.3 10.4007 27.3 10.4004 27.3 10.4003C27.3 10.4002 27.3 10.4001 27.3 10.4001C27.3 10.4 27.3 10.4 26.8 10.4C26.3 10.4 26.3 10.3999 26.3 10.3999C26.3 10.4 26.3 10.4 26.3 10.4C26.3 10.4001 26.3 10.4003 26.3 10.4005C26.3 10.4009 26.3 10.4016 26.3 10.4026C26.3 10.4045 26.3 10.4074 26.3 10.4113C26.3 10.4191 26.2999 10.4309 26.2999 10.4464C26.2997 10.4775 26.2995 10.5237 26.299 10.5834C26.2979 10.7028 26.2959 10.8761 26.2917 11.0906C26.2834 11.5198 26.2669 12.1131 26.2338 12.7694C26.1668 14.0966 26.0342 15.631 25.7812 16.6005L26.7488 16.853ZM26.8 10.4C27.3 10.4 27.3 10.3999 27.3 10.3998C27.3 10.3998 27.3 10.3997 27.3 10.3996C27.3 10.3995 27.3 10.3992 27.3 10.3989C27.3 10.3983 27.3 10.3975 27.3 10.3963C27.3 10.3941 27.3 10.3909 27.3 10.3866C27.3 10.3781 27.2999 10.3656 27.2999 10.3494C27.2997 10.3168 27.2995 10.2691 27.2989 10.2079C27.2979 10.0853 27.2958 9.90846 27.2915 9.69C27.2831 9.25328 27.2663 8.64924 27.2325 7.98005C27.1657 6.65631 27.0308 5.02735 26.7488 3.94691L25.7812 4.19944C26.0342 5.16881 26.1668 6.70324 26.2338 8.03044C26.2669 8.68671 26.2834 9.28002 26.2917 9.7093C26.2959 9.92383 26.2979 10.0971 26.299 10.2165C26.2995 10.2762 26.2997 10.3224 26.2999 10.3535C26.2999 10.369 26.3 10.3808 26.3 10.3886C26.3 10.3925 26.3 10.3954 26.3 10.3973C26.3 10.3983 26.3 10.399 26.3 10.3994C26.3 10.3996 26.3 10.3998 26.3 10.3999C26.3 10.3999 26.3 10.3999 26.3 10.4C26.3 10.4 26.3 10.4 26.8 10.4Z" fill="white"/>
<path d="M11.6 14.7999V6.79993L18 10.8001L11.6 14.7999Z" stroke="#FDF8F8"/>
</svg>
