<svg width="40" height="42" viewBox="0 0 40 42" fill="none" xmlns="http://www.w3.org/2000/svg">
<path d="M4.84849 0C3.56259 0 2.32936 0.570971 1.42009 1.58731C0.510822 2.60364 0 3.98209 0 5.4194V27.097C0 28.5343 0.510822 29.9128 1.42009 30.9291C2.32936 31.9455 3.56259 32.5164 4.84849 32.5164H23.0303V30.6982C22.8229 30.4111 22.6271 30.1136 22.4437 29.8067H4.84849C4.20554 29.8067 3.58893 29.5212 3.13429 29.0131C2.67966 28.5049 2.42425 27.8157 2.42425 27.097V5.4194C2.42425 4.70075 2.67966 4.01152 3.13429 3.50336C3.58893 2.99519 4.20554 2.7097 4.84849 2.7097H33.9394C34.5824 2.7097 35.199 2.99519 35.6537 3.50336C36.1083 4.01152 36.3637 4.70075 36.3637 5.4194V12.107C37.2461 12.5947 38.0607 13.2179 38.7879 13.9441V5.4194C38.7879 3.98209 38.2771 2.60364 37.3679 1.58731C36.4586 0.570971 35.2253 0 33.9394 0H4.84849Z" fill="#919191"/>
<path d="M40 23.0323C40 25.5476 39.1061 27.9599 37.5148 29.7385C35.9236 31.5171 33.7655 32.5163 31.5151 32.5163C29.2648 32.5163 27.1067 31.5171 25.5154 29.7385C23.9242 27.9599 23.0303 25.5476 23.0303 23.0323C23.0303 20.517 23.9242 18.1047 25.5154 16.3261C27.1067 14.5475 29.2648 13.5483 31.5151 13.5483C33.7655 13.5483 35.9236 14.5475 37.5148 16.3261C39.1061 18.1047 40 20.517 40 23.0323Z" fill="#919191"/>
<path d="M31.5152 35.2258C33.7576 35.2258 35.8425 34.4671 37.5758 33.1719V40.6452C37.5758 40.8968 37.5131 41.1435 37.3948 41.3575C37.2765 41.5716 37.1071 41.7445 36.9058 41.8571C36.7044 41.9696 36.479 42.0172 36.2548 41.9946C36.0307 41.972 35.8165 41.8801 35.6364 41.7291L32.2425 38.8839C32.0327 38.708 31.7775 38.613 31.5152 38.613C31.2529 38.613 30.9977 38.708 30.7879 38.8839L27.394 41.7291C27.2139 41.8801 26.9998 41.972 26.7756 41.9946C26.5514 42.0172 26.326 41.9696 26.1246 41.8571C25.9233 41.7445 25.754 41.5716 25.6356 41.3575C25.5173 41.1435 25.4546 40.8968 25.4546 40.6452V33.1719C27.2473 34.5146 29.3573 35.2297 31.5152 35.2258Z" fill="#919191"/>
<path d="M7.27271 9.48376C7.27271 9.12443 7.40041 8.77982 7.62773 8.52573C7.85505 8.27165 8.16335 8.12891 8.48483 8.12891H30.3031C30.6245 8.12891 30.9328 8.27165 31.1602 8.52573C31.3875 8.77982 31.5152 9.12443 31.5152 9.48376C31.5152 9.84309 31.3875 10.1877 31.1602 10.4418C30.9328 10.6959 30.6245 10.8386 30.3031 10.8386H8.48483C8.16335 10.8386 7.85505 10.6959 7.62773 10.4418C7.40041 10.1877 7.27271 9.84309 7.27271 9.48376Z" fill="#919191"/>
<path d="M8.48483 21.6775C8.16335 21.6775 7.85505 21.8202 7.62773 22.0743C7.40041 22.3284 7.27271 22.673 7.27271 23.0323C7.27271 23.3917 7.40041 23.7363 7.62773 23.9904C7.85505 24.2445 8.16335 24.3872 8.48483 24.3872H18.1818C18.5033 24.3872 18.8116 24.2445 19.0389 23.9904C19.2662 23.7363 19.3939 23.3917 19.3939 23.0323C19.3939 22.673 19.2662 22.3284 19.0389 22.0743C18.8116 21.8202 18.5033 21.6775 18.1818 21.6775H8.48483Z" fill="#919191"/>
</svg>
