<svg width="168" height="55" fill="none" xmlns="http://www.w3.org/2000/svg"><path d="M14.248 18l1.08-3.317h5.248L21.656 18h3.295L19.937 3.455h-3.963L10.952 18h3.296zm1.86-5.717l1.79-5.505h.114l1.79 5.505h-3.693zM26.703 18h9.31v-2.536h-6.235V3.454h-3.075V18zm11.347 0h3.076v-6.008h5.916V9.456h-5.916V5.99h6.555V3.455h-9.63V18zm12.39 0l1.08-3.317h5.248L57.847 18h3.295L56.128 3.455h-3.963L47.144 18h3.295zm1.861-5.717l1.79-5.505h.113l1.79 5.505H52.3zm17.333-2.756H63v2.4h6.633v-2.4zm3.225-6.072v4.687c-.008 3.31 2.258 4.759 5.767 4.759.731 0 2.01-.1 2.89-.277V18h3.004V3.455h-3.004v6.732c-.873.171-2.152.256-2.89.256-1.932 0-2.777-.618-2.777-2.301V3.455h-2.99zm14.71 0V18h2.656l6.329-9.155h.106V18h3.075V3.455h-2.698l-6.279 9.147h-.128V3.455h-3.06zm27.534 5.092c-.405-3.36-2.948-5.291-6.314-5.291-3.842 0-6.776 2.713-6.776 7.471 0 4.745 2.884 7.472 6.776 7.472 3.729 0 5.98-2.479 6.314-5.156l-3.111-.015c-.291 1.556-1.513 2.45-3.153 2.45-2.209 0-3.708-1.64-3.708-4.75 0-3.026 1.478-4.752 3.729-4.752 1.683 0 2.898.973 3.132 2.57h3.111zm1.651-2.557h4.453V18h3.04V5.99h4.453V3.455h-11.946V5.99zM139.466 18h3.814l-5.937-7.798 5.674-6.747h-3.828l-4.829 5.81h-.618v-5.81h-3.075V18h3.075v-6.2h1.051l4.673 6.2zm7.868 0l1.079-3.317h5.249L154.741 18h3.296l-5.014-14.545h-3.963L144.038 18h3.296zm1.861-5.717l1.789-5.505h.114l1.79 5.505h-3.693zM1.9 44.508h2.954V41h8.772v3.494h2.954V38.55h-1.59V26.455H5.365l-.412 6.15c-.249 3.807-1.066 5.22-2.067 5.945H1.9v5.959zm4.538-5.958c.732-1.2 1.278-3.069 1.47-5.945l.227-3.615h3.9v9.56H6.438zM18.45 41h9.83v-2.535h-6.755V34.99h6.222v-2.535h-6.222V28.99h6.726v-2.535H18.45V41zm11.457 0h.796c3.501 0 4.595-2.138 4.822-7.017l.228-5.064h4.027V41h2.99V26.454h-9.873l-.24 6.47c-.143 4.056-.74 5.434-2.338 5.569l-.412.035V41zm17.905 0l1.08-3.317h5.248L55.22 41h3.295l-5.014-14.546h-3.963L44.517 41h3.295zm1.861-5.717l1.79-5.505h.114l1.79 5.505h-3.694zM60.266 41h9.83v-2.535H63.34V34.99h6.222v-2.535H63.34V28.99h6.726v-2.535h-9.8V41zm12.246-14.546V41h2.983v-9.503h.12l3.765 9.432h2.031l3.765-9.396h.12V41h2.983V26.454h-3.792l-4.006 9.773h-.17l-4.006-9.772h-3.793zm23.52 0v4.688c-.008 3.31 2.258 4.759 5.766 4.759.732 0 2.01-.1 2.891-.277V41h3.004V26.454h-3.004v6.733c-.873.171-2.152.256-2.891.256-1.931 0-2.776-.618-2.776-2.301v-4.688h-2.99zm14.71 0V41h2.656l6.328-9.155h.107V41h3.075V26.454h-2.699l-6.278 9.148h-.128v-9.147h-3.061zm27.534 5.093c-.405-3.36-2.948-5.291-6.314-5.291-3.843 0-6.776 2.713-6.776 7.471 0 4.745 2.884 7.472 6.776 7.472 3.729 0 5.98-2.479 6.314-5.156l-3.111-.015c-.291 1.556-1.513 2.45-3.153 2.45-2.209 0-3.708-1.64-3.708-4.75 0-3.026 1.477-4.752 3.729-4.752 1.683 0 2.898.973 3.132 2.57h3.111zm1.651-2.557h4.453V41h3.04V28.99h4.453v-2.535h-11.946v2.535zm26.635 4.737c0-4.758-2.954-7.471-6.811-7.471-3.878 0-6.811 2.713-6.811 7.471 0 4.738 2.933 7.472 6.811 7.472 3.857 0 6.811-2.713 6.811-7.472zm-3.118 0c0 3.083-1.463 4.752-3.693 4.752-2.237 0-3.693-1.67-3.693-4.752s1.456-4.751 3.693-4.751c2.23 0 3.693 1.669 3.693 4.751z" fill="#0F0F0F"/><path d="M0 54h168" stroke="#000" stroke-width="2"/></svg>