<svg width="40" height="38" viewBox="0 0 40 38" fill="none" xmlns="http://www.w3.org/2000/svg">
<path d="M20 0C8.95536 0 0 8.50759 0 19C0 29.4924 8.95536 38 20 38C31.0446 38 40 29.4924 40 19C40 8.50759 31.0446 0 20 0ZM20 34.7768C10.8304 34.7768 3.39286 27.7112 3.39286 19C3.39286 10.2888 10.8304 3.22321 20 3.22321C29.1696 3.22321 36.6071 10.2888 36.6071 19C36.6071 27.7112 29.1696 34.7768 20 34.7768ZM22.1295 18.0161L20.9955 17.7658V12.0701C22.692 12.2906 23.7411 13.3 23.9196 14.5384C23.942 14.708 24.0938 14.831 24.2723 14.831H26.2768C26.4866 14.831 26.6518 14.6571 26.6339 14.4578C26.3616 11.8156 24.0714 10.1192 21.0134 9.82656V8.43973C21.0134 8.25313 20.8527 8.10045 20.6562 8.10045H19.4018C19.2054 8.10045 19.0446 8.25313 19.0446 8.43973V9.83929C15.8839 10.1319 13.4107 11.7902 13.4107 14.8862C13.4107 17.7531 15.6339 19.1357 17.9688 19.6658L19.0714 19.933V25.985C17.0982 25.7348 15.9911 24.7339 15.7634 23.3853C15.7366 23.2241 15.5848 23.1054 15.4107 23.1054H13.3482C13.1384 23.1054 12.9732 23.275 12.9911 23.4743C13.192 25.8069 15.0536 27.9529 19.0268 28.2286V29.5603C19.0268 29.7469 19.1875 29.8996 19.3839 29.8996H20.6518C20.8482 29.8996 21.0089 29.7469 21.0089 29.556L21 28.2116C24.4955 27.919 26.9955 26.142 26.9955 22.9527C26.9911 20.0094 25.0223 18.6946 22.1295 18.0161ZM19.067 17.329C18.817 17.2612 18.6071 17.1975 18.3973 17.117C16.8884 16.5996 16.1875 15.7641 16.1875 14.6868C16.1875 13.1473 17.4152 12.2694 19.067 12.0701V17.329ZM20.9955 25.9978V20.3275C21.1339 20.3656 21.2589 20.3953 21.3884 20.4208C23.5 21.0315 24.2098 21.8797 24.2098 23.1817C24.2098 24.84 22.8973 25.8366 20.9955 25.9978Z" fill="#919191"/>
</svg>
