<svg width="42" height="44" viewBox="0 0 42 44" fill="none" xmlns="http://www.w3.org/2000/svg">
<path d="M20.6304 30.1053C9.23209 30.1053 0 34.2505 0 39.3684V44H41.2607V39.3684C41.2607 34.2505 32.0287 30.1053 20.6304 30.1053ZM10.3152 16.2105C10.3152 18.6673 11.402 21.0234 13.3364 22.7606C15.2709 24.4977 17.8946 25.4737 20.6304 25.4737C23.3661 25.4737 25.9898 24.4977 27.9243 22.7606C29.8588 21.0234 30.9456 18.6673 30.9456 16.2105H10.3152ZM19.341 0C18.5673 0 18.0516 0.486316 18.0516 1.15789V8.10526H15.4728V2.31579C15.4728 2.31579 9.67049 4.30737 9.67049 11C9.67049 11 7.73639 11.3242 7.73639 13.8947H33.5244C33.3954 11.3242 31.5903 11 31.5903 11C31.5903 4.30737 25.788 2.31579 25.788 2.31579V8.10526H23.2092V1.15789C23.2092 0.486316 22.7192 0 21.9198 0H19.341Z" fill="black" fill-opacity="0.38"/>
</svg>
