<svg width="168" height="55" viewBox="0 0 168 55" fill="none" xmlns="http://www.w3.org/2000/svg">
<path d="M14.2479 18L15.3274 14.6832H20.576L21.6555 18H24.951L19.9368 3.45455H15.9737L10.9524 18H14.2479ZM16.1087 12.2827L17.8984 6.77841H18.0121L19.8018 12.2827H16.1087ZM26.7017 18H36.0128V15.4645H29.777V3.45455H26.7017V18ZM38.0494 18H41.1246V11.9915H47.0408V9.45597H41.1246V5.99006H47.68V3.45455H38.0494V18ZM50.4393 18L51.5188 14.6832H56.7674L57.8469 18H61.1424L56.1282 3.45455H52.1651L47.1438 18H50.4393ZM52.3001 12.2827L54.0898 6.77841H54.2035L55.9933 12.2827H52.3001ZM69.6332 9.52699H62.9996V11.9276H69.6332V9.52699ZM72.8576 3.45455V8.14205C72.8505 11.4517 75.1161 12.9006 78.6246 12.9006C79.3562 12.9006 80.6346 12.8011 81.5153 12.6236V18H84.5195V3.45455H81.5153V10.1875C80.6417 10.358 79.3633 10.4432 78.6246 10.4432C76.6928 10.4432 75.8477 9.82528 75.8477 8.14205V3.45455H72.8576ZM87.5682 3.45455V18H90.2244L96.5526 8.84517H96.6591V18H99.7344V3.45455H97.0355L90.7571 12.6023H90.6293V3.45455H87.5682ZM115.102 8.54688C114.697 5.1875 112.154 3.25568 108.788 3.25568C104.946 3.25568 102.012 5.96875 102.012 10.7273C102.012 15.4716 104.896 18.1989 108.788 18.1989C112.517 18.1989 114.768 15.7202 115.102 13.0426L111.991 13.0284C111.7 14.5838 110.478 15.4787 108.838 15.4787C106.629 15.4787 105.13 13.8381 105.13 10.7273C105.13 7.7017 106.608 5.97585 108.859 5.97585C110.542 5.97585 111.757 6.94886 111.991 8.54688H115.102ZM116.753 5.99006H121.206V18H124.246V5.99006H128.699V3.45455H116.753V5.99006ZM139.466 18H143.28L137.343 10.2017L143.017 3.45455H139.189L134.36 9.2642H133.742V3.45455H130.667V18H133.742V11.7997H134.793L139.466 18ZM147.334 18L148.413 14.6832H153.662L154.741 18H158.037L153.023 3.45455H149.06L144.038 18H147.334ZM149.195 12.2827L150.984 6.77841H151.098L152.888 12.2827H149.195ZM1.89968 44.5085H4.85423V41H13.6255V44.4943H16.5801V38.5497H14.9892V26.4545H5.36559L4.95366 32.6051C4.70508 36.4119 3.88832 37.8253 2.8869 38.5497H1.89968V44.5085ZM6.43803 38.5497C7.16957 37.3494 7.71644 35.4815 7.9082 32.6051L8.13548 28.9901H12.0346V38.5497H6.43803ZM18.4498 41H28.2793V38.4645H21.525V34.9915H27.7466V32.456H21.525V28.9901H28.2509V26.4545H18.4498V41ZM29.9075 41H30.7029C34.2044 41 35.2981 38.8622 35.5254 33.983L35.7527 28.919H39.7797V41H42.7697V26.4545H32.8975L32.6561 32.9247C32.514 36.9801 31.9174 38.358 30.3194 38.4929L29.9075 38.5284V41ZM47.8123 41L48.8919 37.6832H54.1404L55.22 41H58.5154L53.5012 26.4545H49.5382L44.5169 41H47.8123ZM49.6731 35.2827L51.4629 29.7784H51.5765L53.3663 35.2827H49.6731ZM60.2662 41H70.0957V38.4645H63.3414V34.9915H69.563V32.456H63.3414V28.9901H70.0673V26.4545H60.2662V41ZM72.5123 26.4545V41H75.4952V31.4972H75.6159L79.3801 40.929H81.4114L85.1756 31.5327H85.2963V41H88.2793V26.4545H84.4867L80.481 36.2273H80.3105L76.3049 26.4545H72.5123ZM96.0314 26.4545V31.142C96.0243 34.4517 98.29 35.9006 101.798 35.9006C102.53 35.9006 103.808 35.8011 104.689 35.6236V41H107.693V26.4545H104.689V33.1875C103.816 33.358 102.537 33.4432 101.798 33.4432C99.8667 33.4432 99.0215 32.8253 99.0215 31.142V26.4545H96.0314ZM110.742 26.4545V41H113.398L119.726 31.8452H119.833V41H122.908V26.4545H120.209L113.931 35.6023H113.803V26.4545H110.742ZM138.276 31.5469C137.871 28.1875 135.328 26.2557 131.962 26.2557C128.119 26.2557 125.186 28.9688 125.186 33.7273C125.186 38.4716 128.07 41.1989 131.962 41.1989C135.691 41.1989 137.942 38.7202 138.276 36.0426L135.165 36.0284C134.874 37.5838 133.652 38.4787 132.012 38.4787C129.803 38.4787 128.304 36.8381 128.304 33.7273C128.304 30.7017 129.781 28.9759 132.033 28.9759C133.716 28.9759 134.931 29.9489 135.165 31.5469H138.276ZM139.927 28.9901H144.38V41H147.42V28.9901H151.873V26.4545H139.927V28.9901ZM166.562 33.7273C166.562 28.9688 163.608 26.2557 159.751 26.2557C155.873 26.2557 152.94 28.9688 152.94 33.7273C152.94 38.4645 155.873 41.1989 159.751 41.1989C163.608 41.1989 166.562 38.4858 166.562 33.7273ZM163.444 33.7273C163.444 36.8097 161.981 38.4787 159.751 38.4787C157.514 38.4787 156.058 36.8097 156.058 33.7273C156.058 30.6449 157.514 28.9759 159.751 28.9759C161.981 28.9759 163.444 30.6449 163.444 33.7273Z" fill="#0F0F0F"/>
<path d="M0 54L168 54" stroke="black" stroke-width="2"/>
</svg>
