<svg width="29" height="28" viewBox="0 0 29 28" fill="none" xmlns="http://www.w3.org/2000/svg">
<path fill-rule="evenodd" clip-rule="evenodd" d="M8.41641 0.084C9.90932 0.0152727 10.3853 0 14.1882 0C17.9911 0 18.4671 0.0165454 19.9588 0.084C21.4504 0.151455 22.4686 0.389455 23.3595 0.734364C24.2924 1.08691 25.1388 1.638 25.8388 2.35073C26.5515 3.04945 27.1013 3.89455 27.4526 4.82873C27.7988 5.71964 28.0355 6.73782 28.1042 8.22691C28.173 9.72236 28.1882 10.1984 28.1882 14C28.1882 17.8029 28.1717 18.2789 28.1042 19.7718C28.0368 21.2609 27.7988 22.2791 27.4526 23.17C27.1013 24.1043 26.5506 24.9508 25.8388 25.6505C25.1388 26.3633 24.2924 26.9131 23.3595 27.2644C22.4686 27.6105 21.4504 27.8473 19.9613 27.916C18.4671 27.9847 17.9911 28 14.1882 28C10.3853 28 9.90932 27.9835 8.41641 27.916C6.92732 27.8485 5.90914 27.6105 5.01823 27.2644C4.08395 26.913 3.23746 26.3623 2.53769 25.6505C1.82544 24.9514 1.27427 24.1053 0.922596 23.1713C0.577687 22.2804 0.34096 21.2622 0.272232 19.7731C0.203505 18.2776 0.188232 17.8016 0.188232 14C0.188232 10.1971 0.204778 9.72109 0.272232 8.22945C0.339687 6.73782 0.577687 5.71964 0.922596 4.82873C1.27479 3.89465 1.82638 3.04858 2.53896 2.34945C3.23774 1.63737 4.08338 1.0862 5.01696 0.734364C5.90787 0.389455 6.92605 0.152727 8.41514 0.084H8.41641ZM19.8455 2.604C18.3691 2.53655 17.9262 2.52255 14.1882 2.52255C10.4502 2.52255 10.0073 2.53655 8.53096 2.604C7.16532 2.66636 6.4246 2.89418 5.93078 3.08636C5.27787 3.34091 4.81078 3.64255 4.32078 4.13255C3.85629 4.58443 3.49883 5.13454 3.2746 5.74255C3.08241 6.23636 2.8546 6.97709 2.79223 8.34273C2.72478 9.81909 2.71078 10.262 2.71078 14C2.71078 17.738 2.72478 18.1809 2.79223 19.6573C2.8546 21.0229 3.08241 21.7636 3.2746 22.2575C3.4986 22.8645 3.85623 23.4156 4.32078 23.8675C4.7726 24.332 5.32369 24.6896 5.93078 24.9136C6.4246 25.1058 7.16532 25.3336 8.53096 25.396C10.0073 25.4635 10.449 25.4775 14.1882 25.4775C17.9275 25.4775 18.3691 25.4635 19.8455 25.396C21.2111 25.3336 21.9519 25.1058 22.4457 24.9136C23.0986 24.6591 23.5657 24.3575 24.0557 23.8675C24.5202 23.4156 24.8779 22.8645 25.1019 22.2575C25.2941 21.7636 25.5219 21.0229 25.5842 19.6573C25.6517 18.1809 25.6657 17.738 25.6657 14C25.6657 10.262 25.6517 9.81909 25.5842 8.34273C25.5219 6.97709 25.2941 6.23636 25.1019 5.74255C24.8473 5.08964 24.5457 4.62255 24.0557 4.13255C23.6038 3.66809 23.0537 3.31063 22.4457 3.08636C21.9519 2.89418 21.2111 2.66636 19.8455 2.604ZM12.4001 18.3158C13.3987 18.7315 14.5107 18.7876 15.5461 18.4746C16.5816 18.1615 17.4762 17.4986 18.0772 16.5992C18.6782 15.6998 18.9483 14.6197 18.8414 13.5432C18.7345 12.4668 18.2571 11.4609 17.491 10.6973C17.0025 10.2092 16.412 9.8354 15.7617 9.60291C15.1115 9.37043 14.4179 9.285 13.7307 9.35278C13.0435 9.42056 12.3799 9.63986 11.7876 9.99489C11.1954 10.3499 10.6892 10.8319 10.3055 11.406C9.92187 11.9801 9.67029 12.6322 9.56889 13.3152C9.46749 13.9983 9.51879 14.6953 9.7191 15.3561C9.91941 16.0169 10.2638 16.6251 10.7273 17.1369C11.1909 17.6487 11.7622 18.0513 12.4001 18.3158ZM9.09987 8.91164C9.76808 8.24342 10.5614 7.71337 11.4344 7.35173C12.3075 6.9901 13.2432 6.80397 14.1882 6.80397C15.1332 6.80397 16.069 6.9901 16.942 7.35173C17.8151 7.71337 18.6084 8.24342 19.2766 8.91164C19.9448 9.57985 20.4749 10.3731 20.8365 11.2462C21.1981 12.1193 21.3843 13.055 21.3843 14C21.3843 14.945 21.1981 15.8807 20.8365 16.7538C20.4749 17.6269 19.9448 18.4202 19.2766 19.0884C17.9271 20.4379 16.0967 21.196 14.1882 21.196C12.2797 21.196 10.4494 20.4379 9.09987 19.0884C7.75035 17.7388 6.9922 15.9085 6.9922 14C6.9922 12.0915 7.75035 10.2612 9.09987 8.91164ZM22.9802 7.87564C23.1458 7.71943 23.2784 7.53159 23.3701 7.32324C23.4618 7.11488 23.5107 6.89025 23.514 6.66264C23.5174 6.43503 23.475 6.20906 23.3894 5.99812C23.3038 5.78718 23.1768 5.59556 23.0158 5.4346C22.8549 5.27363 22.6632 5.1466 22.4523 5.06102C22.2414 4.97544 22.0154 4.93306 21.7878 4.93638C21.5602 4.9397 21.3355 4.98865 21.1272 5.08034C20.9188 5.17203 20.731 5.30459 20.5748 5.47018C20.271 5.79222 20.1047 6.21997 20.1111 6.66264C20.1176 7.1053 20.2963 7.52803 20.6093 7.84107C20.9224 8.15412 21.3451 8.33284 21.7878 8.33929C22.2304 8.34574 22.6582 8.17942 22.9802 7.87564Z" fill="#0F0F0F"/>
</svg>
