<svg width="28" height="16" viewBox="0 0 28 16" fill="none" xmlns="http://www.w3.org/2000/svg">
<path d="M15.2555 14.8761C15.2555 14.8761 15.7175 14.8257 15.9541 14.5762C16.1707 14.3476 16.1632 13.9162 16.1632 13.9162C16.1632 13.9162 16.1344 11.9017 17.0873 11.6043C18.0264 11.3118 19.2321 13.5524 20.5118 14.4139C21.4784 15.0653 22.2121 14.9228 22.2121 14.9228L25.6316 14.8761C25.6316 14.8761 27.4196 14.7679 26.5719 13.3877C26.5018 13.2746 26.0773 12.3663 24.0302 10.5006C21.8853 8.54766 22.1733 8.86352 24.7551 5.48485C26.3278 3.42742 26.9563 2.17132 26.7597 1.63423C26.5732 1.12048 25.4162 1.25691 25.4162 1.25691L21.5673 1.28026C21.5673 1.28026 21.2818 1.24216 21.0702 1.36629C20.8636 1.48797 20.7296 1.77188 20.7296 1.77188C20.7296 1.77188 20.1211 3.36351 19.3085 4.71792C17.5944 7.57425 16.9095 7.72542 16.629 7.54844C15.9767 7.13424 16.1394 5.88675 16.1394 5.00061C16.1394 2.23155 16.5677 1.07747 15.3068 0.778805C14.8886 0.679252 14.5806 0.614112 13.51 0.603051C12.1365 0.589531 10.9745 0.607967 10.3159 0.923834C9.87771 1.134 9.53964 1.6035 9.74624 1.63054C10.0004 1.66372 10.5764 1.78294 10.8819 2.19099C11.2763 2.71825 11.2625 3.9006 11.2625 3.9006C11.2625 3.9006 11.4892 7.16005 10.7329 7.56441C10.2145 7.84218 9.50333 7.27559 7.97452 4.68351C7.19196 3.35613 6.60097 1.88864 6.60097 1.88864C6.60097 1.88864 6.48703 1.61456 6.28294 1.46708C6.03627 1.28886 5.69195 1.23356 5.69195 1.23356L2.03457 1.25691C2.03457 1.25691 1.4849 1.27166 1.28331 1.50641C1.10426 1.71412 1.26954 2.14551 1.26954 2.14551C1.26954 2.14551 4.13309 8.72218 7.37602 12.0369C10.3497 15.0752 13.7254 14.8761 13.7254 14.8761H15.2555Z" stroke="white"/>
</svg>
